<?xml version="1.0" encoding="UTF-8"?>
<svg width="32px" height="32px" viewBox="0 0 32 32" version="1.1" xmlns="http://www.w3.org/2000/svg" xmlns:xlink="http://www.w3.org/1999/xlink">
    <title>BFB2EC2B-DD43-43E9-B5A9-2F1B7D8FC6B7@1</title>
    <g id="Home-Page-2.1" stroke="none" stroke-width="1" fill="none" fill-rule="evenodd">
        <g id="Home---Used" transform="translate(-1376.000000, -298.000000)">
            <g id="next-" transform="translate(1376.000000, 298.000000)">
                <path d="M16,32 C24.8235294,32 32,24.8235294 32,16 C32,7.17647059 24.8235294,0 16,0 C7.17647059,0 0,7.17647059 0,16 C0,24.8235294 7.17647059,32 16,32 Z" id="Shape" fill="#FFFFFF" fill-rule="nonzero" opacity="0.6"></path>
                <path d="M13.7254902,21.3137255 C13.8496732,21.4379085 14.0196078,21.503268 14.1830065,21.503268 C14.3464052,21.503268 14.5163399,21.4379085 14.6405229,21.3137255 L19.496732,16.4575163 C19.620915,16.3333333 19.6862745,16.1699346 19.6862745,16 C19.6862745,15.8300654 19.620915,15.6666667 19.496732,15.5424837 L14.6405229,10.6862745 C14.3856209,10.4313725 13.9803922,10.4313725 13.7254902,10.6862745 C13.4705882,10.9411765 13.4705882,11.3464052 13.7254902,11.6013072 L18.124183,16 L13.7254902,20.3986928 C13.4771242,20.6535948 13.4771242,21.0653595 13.7254902,21.3137255 Z" id="Path" fill="#3358DA"></path>
            </g>
        </g>
    </g>
</svg>